# xmcd
#
# Track frame offsets:
#	150
#	22444
#	40196
#	59262
#	79623
#	100226
#	117952
#	144761
#	162890
#	185659
#	200240
#	217888
#	235680
#
# Disc length: 3290 seconds
# Revision: 1
# Processed by: cddbd v1.5.2PL0 Copyright (c) Steve Scherf et al.
# Submitted via: dBpowerAMP V12.0
#
DISCID=b20cd80d
DTITLE=The Mighty Mojo Prophets - Flyin' Home From Memphis
DYEAR=2013
DGENRE=Blues
TTITLE0=Sweetness
TTITLE1=The Gambler
TTITLE2=Lucky Man
TTITLE3=I Can't Believe
TTITLE4=The .45
TTITLE5=California
TTITLE6=Remember Me
TTITLE7=One for Me
TTITLE8=Strong Medicine
TTITLE9=Jo's Jive
TTITLE10=She's Gone
TTITLE11=Street Corner Preacher
TTITLE12=Whachulookinfor
EXTD=
EXTT0=
EXTT1=
EXTT2=
EXTT3=
EXTT4=
EXTT5=
EXTT6=
EXTT7=
EXTT8=
EXTT9=
EXTT10=
EXTT11=
EXTT12=
PLAYORDER=
